<?xml version='1.0' encoding='UTF-8'?>
<mxfile host="app.diagrams.net"><diagram name="GroupSettings_ERD"><mxGraphModel><root><mxCell id="0" /><mxCell id="1" parent="0" /><mxCell id="2" value="Groups" style="swimlane;fillColor=#ffffff;" vertex="1" parent="1"><mxGeometry x="20" y="20" width="180" height="80" as_="geometry" relative="0" /></mxCell><mxCell id="2_0" value="GroupId (PK)" style="text;html=1;align=left;" vertex="1" parent="2"><mxGeometry x="10" y="30" width="160" height="20" as_="geometry" relative="1" /></mxCell><mxCell id="2_1" value="GroupName" style="text;html=1;align=left;" vertex="1" parent="2"><mxGeometry x="10" y="50" width="160" height="20" as_="geometry" relative="1" /></mxCell><mxCell id="3" value="GroupSettings" style="swimlane;fillColor=#ffffff;" vertex="1" parent="1"><mxGeometry x="250" y="20" width="180" height="180" as_="geometry" relative="0" /></mxCell><mxCell id="3_0" value="GroupId (FK)" style="text;html=1;align=left;" vertex="1" parent="3"><mxGeometry x="10" y="30" width="160" height="20" as_="geometry" relative="1" /></mxCell><mxCell id="3_1" value="SettingKey (PK)" style="text;html=1;align=left;" vertex="1" parent="3"><mxGeometry x="10" y="50" width="160" height="20" as_="geometry" relative="1" /></mxCell><mxCell id="3_2" value="SettingValue" style="text;html=1;align=left;" vertex="1" parent="3"><mxGeometry x="10" y="70" width="160" height="20" as_="geometry" relative="1" /></mxCell><mxCell id="3_3" value="ValueType" style="text;html=1;align=left;" vertex="1" parent="3"><mxGeometry x="10" y="90" width="160" height="20" as_="geometry" relative="1" /></mxCell><mxCell id="3_4" value="CreatedBy" style="text;html=1;align=left;" vertex="1" parent="3"><mxGeometry x="10" y="110" width="160" height="20" as_="geometry" relative="1" /></mxCell><mxCell id="3_5" value="CreatedDate" style="text;html=1;align=left;" vertex="1" parent="3"><mxGeometry x="10" y="130" width="160" height="20" as_="geometry" relative="1" /></mxCell><mxCell id="3_6" value="LastUpdatedDate" style="text;html=1;align=left;" vertex="1" parent="3"><mxGeometry x="10" y="150" width="160" height="20" as_="geometry" relative="1" /></mxCell><mxCell id="4" value="GroupSettingsAudit" style="swimlane;fillColor=#ffffff;" vertex="1" parent="1"><mxGeometry x="480" y="20" width="180" height="180" as_="geometry" relative="0" /></mxCell><mxCell id="4_0" value="AuditId (PK)" style="text;html=1;align=left;" vertex="1" parent="4"><mxGeometry x="10" y="30" width="160" height="20" as_="geometry" relative="1" /></mxCell><mxCell id="4_1" value="GroupId (FK)" style="text;html=1;align=left;" vertex="1" parent="4"><mxGeometry x="10" y="50" width="160" height="20" as_="geometry" relative="1" /></mxCell><mxCell id="4_2" value="SettingKey" style="text;html=1;align=left;" vertex="1" parent="4"><mxGeometry x="10" y="70" width="160" height="20" as_="geometry" relative="1" /></mxCell><mxCell id="4_3" value="OldValue" style="text;html=1;align=left;" vertex="1" parent="4"><mxGeometry x="10" y="90" width="160" height="20" as_="geometry" relative="1" /></mxCell><mxCell id="4_4" value="NewValue" style="text;html=1;align=left;" vertex="1" parent="4"><mxGeometry x="10" y="110" width="160" height="20" as_="geometry" relative="1" /></mxCell><mxCell id="4_5" value="ChangedBy" style="text;html=1;align=left;" vertex="1" parent="4"><mxGeometry x="10" y="130" width="160" height="20" as_="geometry" relative="1" /></mxCell><mxCell id="4_6" value="ChangedDate" style="text;html=1;align=left;" vertex="1" parent="4"><mxGeometry x="10" y="150" width="160" height="20" as_="geometry" relative="1" /></mxCell></root></mxGraphModel></diagram></mxfile>